<svg xmlns="http://www.w3.org/2000/svg" viewBox="0 0 64 64">
  <rect width="64" height="64" rx="14" fill="#1e1b16"/>
  <path d="M18 26h24v10a10 10 0 0 1-10 10h-4a10 10 0 0 1-10-10V26z" fill="#f5f0e8"/>
  <path d="M42 28h4a6 6 0 0 1 0 12h-4" fill="none" stroke="#f5f0e8" stroke-width="3"/>
  <path d="M24 14c0 3-3 3-3 6M31 14c0 3-3 3-3 6M38 14c0 3-3 3-3 6" stroke="#a67c52" stroke-width="3" fill="none" stroke-linecap="round"/>
  <rect x="16" y="50" width="32" height="4" rx="2" fill="#a67c52"/>
</svg>
